<?xml version="1.0" encoding="utf-8"?>
<!-- Generator: Adobe Illustrator 22.1.0, SVG Export Plug-In . SVG Version: 6.00 Build 0)  -->
<svg version="1.1" id="Capa_1" xmlns="http://www.w3.org/2000/svg" xmlns:xlink="http://www.w3.org/1999/xlink" x="0px" y="0px"
	 viewBox="0 0 25 25" style="enable-background:new 0 0 25 25;" xml:space="preserve">
<style type="text/css">
	.st0{fill:#0F69C4;}
</style>
<g id="Atoms-_-Icons-_-white-_-32px-_-rrss-_-twitter" transform="translate(1413 2389)">
	<g>
		<path id="Shape_8_" class="st0" d="M-1390.7-2381.6v0.6c0.1,7.9-6.3,14.4-14.3,14.5c-0.1,0-0.2,0-0.2,0c-2.7,0-5.4-0.8-7.8-2.2
			h1.2c2.3,0.1,4.5-0.7,6.3-2.2c-2.2,0-4.2-1.5-4.8-3.6c0.3,0,0.6,0.1,0.9,0.1c0.5,0,0.9,0,1.3-0.1c-2.4-0.4-4.1-2.5-4-4.9l0,0
			c0.7,0.4,1.5,0.6,2.2,0.6c-1.3-1-2.1-2.5-2.1-4.2c0-0.9,0.3-1.8,0.8-2.5c2.6,3.2,6.4,5.1,10.5,5.4c-0.1-0.4-0.2-0.8-0.2-1.2
			c0-2.8,2.2-5.1,5-5.1h0.1c1.4,0,2.8,0.6,3.7,1.6c1.1-0.2,2.3-0.6,3.3-1.2c-0.4,1.2-1.2,2.2-2.2,2.8c1-0.2,2-0.4,3-0.7
			C-1388.8-2383.1-1389.7-2382.3-1390.7-2381.6z"/>
	</g>
</g>
</svg>
