<?xml version="1.0" encoding="utf-8"?>
<!-- Generator: Adobe Illustrator 26.0.3, SVG Export Plug-In . SVG Version: 6.00 Build 0)  -->
<svg version="1.1" id="Capa_1" xmlns="http://www.w3.org/2000/svg" xmlns:xlink="http://www.w3.org/1999/xlink" x="0px" y="0px"
	 viewBox="0 0 25 25" style="enable-background:new 0 0 25 25;" xml:space="preserve">
<style type="text/css">
	.st0{fill:#0F69C4;}
</style>
<g>
	<path class="st0" d="M24.5,7.5c-0.1-1.3-0.3-2.2-0.6-2.9c-0.3-0.8-0.7-1.5-1.4-2.1c-0.7-0.7-1.3-1.1-2.1-1.4
		c-0.8-0.3-1.6-0.5-2.9-0.6c-1.3-0.1-1.7-0.1-5-0.1c-3.3,0-3.7,0-5,0.1C6.2,0.6,5.4,0.8,4.6,1.1C3.8,1.4,3.1,1.8,2.5,2.5
		C1.8,3.1,1.4,3.8,1.1,4.6C0.8,5.4,0.6,6.2,0.5,7.5c-0.1,1.3-0.1,1.7-0.1,5c0,3.3,0,3.7,0.1,5c0.1,1.3,0.3,2.2,0.6,2.9
		c0.3,0.8,0.7,1.5,1.4,2.1c0.7,0.7,1.3,1.1,2.1,1.4c0.8,0.3,1.6,0.5,2.9,0.6c1.3,0.1,1.7,0.1,5,0.1c3.3,0,3.7,0,5-0.1
		c1.3-0.1,2.2-0.3,2.9-0.6c0.8-0.3,1.5-0.7,2.1-1.4c0.7-0.7,1.1-1.3,1.4-2.1c0.3-0.8,0.5-1.6,0.6-2.9c0.1-1.3,0.1-1.7,0.1-5
		C24.6,9.2,24.5,8.8,24.5,7.5z M22.3,17.4c-0.1,1.2-0.3,1.8-0.4,2.2c-0.2,0.6-0.5,1-0.9,1.4c-0.4,0.4-0.8,0.7-1.4,0.9
		c-0.4,0.2-1.1,0.4-2.2,0.4c-1.3,0.1-1.7,0.1-4.9,0.1c-3.2,0-3.6,0-4.9-0.1c-1.2-0.1-1.8-0.2-2.2-0.4c-0.6-0.2-1-0.5-1.4-0.9
		c-0.4-0.4-0.7-0.8-0.9-1.4c-0.2-0.4-0.4-1.1-0.4-2.2c-0.1-1.3-0.1-1.7-0.1-4.9c0-3.2,0-3.6,0.1-4.9c0.1-1.2,0.3-1.8,0.4-2.2
		C3.3,4.8,3.6,4.4,4,4c0.4-0.4,0.8-0.7,1.4-0.9c0.4-0.2,1.1-0.4,2.2-0.4c1.3-0.1,1.7-0.1,4.9-0.1s3.6,0,4.9,0.1
		c1.2,0.1,1.8,0.3,2.2,0.4c0.6,0.2,1,0.5,1.4,0.9c0.4,0.4,0.7,0.8,0.9,1.4c0.2,0.4,0.4,1.1,0.4,2.2c0.1,1.3,0.1,1.7,0.1,4.9
		C22.4,15.7,22.4,16.1,22.3,17.4z"/>
	<path class="st0" d="M18.9,4.6c-0.8,0-1.4,0.6-1.4,1.4c0,0.8,0.6,1.4,1.4,1.4s1.4-0.6,1.4-1.4C20.4,5.3,19.7,4.6,18.9,4.6z"/>
	<path class="st0" d="M12.5,6.3c-3.4,0-6.2,2.8-6.2,6.2s2.8,6.2,6.2,6.2c3.4,0,6.2-2.8,6.2-6.2S15.9,6.3,12.5,6.3z M12.5,16.5
		c-2.2,0-4-1.8-4-4c0-2.2,1.8-4,4-4s4,1.8,4,4C16.5,14.7,14.7,16.5,12.5,16.5z"/>
</g>
</svg>
